<?xml version="1.0" encoding="utf-8" ?>
<svg xmlns="http://www.w3.org/2000/svg" xmlns:xlink="http://www.w3.org/1999/xlink" width="512" height="512">
	<path fill="#FF3723" transform="scale(0.5 0.5)" d="M633.354 336.236L731.445 336.078C732.129 337.892 731.971 340.518 731.974 342.471L731.978 353.55L731.972 392.742L731.906 540.739L731.888 630.101L731.707 679.356C730.462 679.924 727.565 679.409 726.132 679.364L710.283 679.1C685.314 678.711 659.632 677.063 634.812 679.637L635.473 443.913L512.172 617.409L396.196 455.887C393.887 452.278 391.872 448.341 389.104 445.064L389.994 679.585L296.017 678.916C294.367 679.042 293.424 679.022 292.159 677.944C291.628 670.499 291.973 662.85 291.97 655.384L291.956 614.5L291.936 487.207L291.935 387.202L291.951 356.745C291.968 349.969 291.749 343.128 292.516 336.386L406.363 336.513C409.341 338.887 411.166 342.66 413.191 345.811L422.197 359.486L445.793 395.751L511.36 494.372C514.998 490.779 516.979 487.027 519.741 482.796L529.383 468.706L594.991 371.414L608.75 351.023C611.343 347.059 613.713 342.43 616.957 338.98C617.715 338.173 618.928 336.906 620.061 336.663C623.952 335.826 629.297 336.345 633.354 336.236Z"/>
</svg>
